<?xml version="1.0" encoding="UTF-8"?>
<svg id="Layer_1" data-name="Layer 1" xmlns="http://www.w3.org/2000/svg" viewBox="0 0 2000 352.06">
  <defs>
    <style>
      .cls-1 {
        fill: #e8cdff;
        stroke-width: 0px;
      }
    </style>
  </defs>
  <path class="cls-1" d="m169.44,51.48c30.21,0,56.65,8.88,76.36,25.83,18.43,15.84,34.19,42.97,37.19,73.49l.22,2.23h-25.54l-.27-1.72c-4.8-30.6-19.48-51.29-37.58-63.18-18.94-12.45-39.71-14.11-50.4-14.01h-.23c-27.67,0-50.55,9.29-66.36,26.7-15.86,17.46-24.38,42.86-24.38,74.18,0,31.33,8.42,57.18,24.1,74.96,15.9,18.05,39.06,27.67,67.15,27.67,23.78,0,43.31-6.5,58.23-19.15,13.85-11.74,25.77-31.2,29.68-58.03l.25-1.74h26.27l-.36,2.34c-5.18,33.99-19.18,58.59-37.23,74.18-19.56,16.88-45.54,25.35-77.09,25.35-34.91,0-64.64-11.93-85.84-34.63-21.08-22.58-32.12-54.28-32.12-90.67,0-36.4,11.2-67.53,32.52-89.88,21.25-22.24,50.84-33.93,85.44-33.93Zm-26.72,129.12c6.17-3.98,13.27-6.81,19.49-9.28l.22-.09h0c.87-.35,1.74-.7,2.57-1.03,8.74-3.53,15.79-6.75,20.87-11.66,4.57-4.44,8.04-10.8,8.08-21.99v-12.08h18.29v103.12h-18.29v-52.45c-7.08,5.4-15.25,8.83-22.28,11.66h-.01s-.01.01-.01.01c-.71.27-1.41.56-2.1.84-.09.04-.18.07-.27.11h-.01c-8.1,3.24-14.42,5.78-19.16,9.51l-.63.49c-1.99,1.66-3.59,3.52-4.73,5.8-1.26,2.52-2.03,5.67-2.03,9.86v2.03h0v12.14h-18.27v-103.12h18.27v56.13Z"/>
  <g>
    <path class="cls-1" d="m446.2,90.71c42.54,0,71.76,24.78,78.78,66.62h-28.75c-5.14-25.71-24.08-41.37-50.02-41.37-32.96,0-53.53,23.14-53.53,59.61s20.57,60.31,53.53,60.31c26.42,0,44.88-15.19,50.02-41.14h28.75c-7.48,42.55-36,66.62-78.78,66.62-50.26,0-82.29-34.6-82.29-85.79s31.32-84.86,82.29-84.86Zm834.07,3.4h-28.89v164.02h28.89v-23.41c.33-13.38,5.44-21.12,13.03-27.08,8.02-6.29,18.63-10.53,31.43-15.65,1.26-.5,2.55-1.02,3.85-1.54,13.14-5.28,28.18-11.68,40.07-22.57v90.25h28.89V94.11h-28.89v18.7l-.02,1.75c-.35,17.84-6.11,28.52-13.89,36.07-8.61,8.35-20.47,13.72-34.4,19.32-1.35.54-2.72,1.09-4.11,1.64-11.93,4.74-25.36,10.08-35.95,18.2v-95.68Zm-715.55,0h-27.59v164.02h27.59v-75.31c.23-16.13,12.39-28.52,31.09-28.52,14.73,0,23.85,9.12,23.85,22.91v80.92h27.58v-82.33c0-27.82-17.3-45.58-43.72-45.58-16.13,0-30.39,6.78-38.8,17.07v-53.17Zm393.85,0h-27.59v39.85h-21.74v23.38h21.74v62.92c0,24.55,14.49,37.87,41.38,37.87h15.9v-23.38h-14.03c-10.29,0-15.66-5.84-15.66-16.36v-61.05h32.03v-23.38h-32.03v-39.85Zm239.78,38.44h-4.67c-20.57,0-35.07,8.88-43.01,25.71l-3.27-24.31h-22.21v124.17h27.59v-61.52c0-23.38,15.19-37.17,40.91-37.17h4.67v-26.88Zm491.91-38.44h-27.58v164.02h27.58V94.11Zm60.59,0h-27.59v39.85h-21.74v23.38h21.74v62.92c0,24.55,14.49,37.87,41.38,37.87h15.9v-23.38h-14.03c-10.29,0-15.66-5.84-15.66-16.36v-61.05h32.03v-23.38h-32.03v-39.85Zm70.92,0h-27.59v164.01h27.59v-75.3c.23-16.13,12.39-28.52,31.09-28.52,14.73,0,23.84,9.12,23.84,22.91v80.91h27.58v-82.32c0-27.82-17.3-45.58-43.71-45.58-16.13,0-30.39,6.78-38.8,17.07v-53.17Zm-707.86,107.4h-93.04c1.87,21.74,15.43,36.47,36.47,36.47,14.26,0,25.01-7.01,29.22-19.4h26.88c-6.31,26.65-27.12,42.78-56.34,42.78-37.87,0-63.82-27.12-63.82-64.99,0-40.91,26.88-66.16,61.48-66.16,35.07,0,58.44,24.55,59.14,64.75v6.55Zm-28.52-19.4c-3.51-17.77-14.49-28.52-30.62-28.52-16.36,0-28.52,10.75-32.73,28.52h63.35Zm445.3,19.4h-93.04c1.87,21.74,15.43,36.47,36.47,36.47,14.26,0,25.01-7.01,29.22-19.4h26.88c-6.31,26.65-27.12,42.78-56.34,42.78-37.87,0-63.82-27.12-63.82-64.99,0-40.91,26.88-66.16,61.48-66.16,35.07,0,58.44,24.55,59.14,64.75v6.55Zm-28.52-19.4c-3.51-17.77-14.49-28.52-30.62-28.52-16.36,0-28.52,10.75-32.73,28.52h63.35Zm-652.26-52.19c33.36,0,57,26.32,57,65.22s-23.45,66.16-56.81,66.16c-16.41,0-30.7-6.48-40.24-17.73v57.02h-23.83v-115.59c-5.76,3.67-12.64,6.64-20.77,9.14l.38,64h-22v-16.45h-2.7s-2.37,7.94-9.07,12.53c-7.63,4.44-17.06,6.73-27.97,6.73-28.77,0-47.47-15.26-47.47-38.71,0-32.61,34.68-36.23,53.37-38.14,2.66-.38,5.15-.57,7.63-.75,15.44-1.32,24.98-2.28,24.98-8.38-.19-14.1-12.41-23.64-28.79-23.64s-29.17,8.95-31.08,22.11l-.38,2.1h-23.26v-2.66c2.28-25.17,24.98-42.71,54.9-42.71s50.44,17.44,51.43,43.78c20.14-8.34,20.81-15.75,20.81-39.97h23.83v17.44h3.37s3.27-10.92,11.25-15.55c7.5-3.83,16.14-5.91,25.42-5.91v-.02Zm-107.92,69.74c-4.84.9-9.93,1.76-15.36,2.56-4.67.8-9.79,1.34-15.15,1.93-18.86,2.1-31.83,4.38-31.83,17.35,0,11.04,10.5,18.29,26.51,18.29,21.14,0,35.83-13.35,35.83-32.23v-7.9Zm140.32-4.67c0-26.28-14.27-43.82-35.56-43.86-21.67.06-36.88,17.77-36.88,42.9,0,27.08,15.26,45.96,37.18,45.96,20.79,0,35.27-18.71,35.27-44.99Zm765.79,63.14h-22v-16.45h-2.7s-2.37,7.94-9.07,12.53c-7.63,4.44-17.06,6.73-27.97,6.73-28.77,0-47.47-15.26-47.47-38.71,0-32.61,34.68-36.23,53.37-38.14,2.66-.38,5.15-.57,7.63-.75,15.44-1.32,24.98-2.28,24.98-8.38-.19-14.1-12.41-23.64-28.79-23.64s-29.17,8.95-31.08,22.11l-.38,2.1h-23.26v-2.66c2.28-25.17,24.98-42.71,54.9-42.71s50.44,17.44,51.43,43.78l.42,84.2Zm-23.66-58.46c-4.84.9-9.93,1.76-15.36,2.56-4.67.8-9.79,1.34-15.15,1.93-18.86,2.1-31.83,4.38-31.83,17.35,0,11.04,10.5,18.29,26.51,18.29,21.14,0,35.83-13.35,35.83-32.23v-7.9Z"/>
    <path class="cls-1" d="m1923.61,258.11h-3.53v-14.67h-5.49v-3.3h14.46v3.3h-5.44v14.67Zm10.14,0h-3.59v-17.97h3.85l5.38,13.98,5.33-13.98h3.8v17.97h-3.53v-10.52l-4.01,10.52h-3.27l-3.96-10.36v10.36Z"/>
  </g>
</svg>