<?xml version="1.0" encoding="UTF-8"?>
<svg id="Layer_1" data-name="Layer 1" xmlns="http://www.w3.org/2000/svg" viewBox="0 0 2000 2120.46">
  <defs>
    <style>
      .cls-1 {
        fill: #e8cdff;
        stroke-width: 0px;
      }
    </style>
  </defs>
  <path class="cls-1" d="m1012,148.79c221.05,0,414.55,64.96,558.79,188.99,134.88,115.93,250.18,314.43,272.13,537.82l1.6,16.3h-186.87l-1.98-12.55c-35.11-223.91-142.54-375.33-275-462.36-138.62-91.13-290.56-103.29-368.85-102.49h-1.66c-202.48,0-369.92,67.97-485.59,195.37-116.05,127.79-178.41,313.64-178.41,542.83,0,229.27,61.6,418.45,176.36,548.57,116.39,132.07,285.84,202.51,491.36,202.51,174.03,0,316.96-47.53,426.11-140.13,101.38-85.94,188.55-228.31,217.18-424.67l1.86-12.72h192.21l-2.61,17.09c-37.9,248.73-140.33,428.72-272.46,542.81-143.12,123.52-333.27,185.52-564.15,185.52-255.46,0-473.06-87.31-628.13-253.4-154.26-165.26-235.07-397.22-235.07-663.48,0-266.36,81.93-494.19,237.98-657.7,155.53-162.75,372.02-248.3,625.23-248.3Zm-195.52,944.88c45.17-29.11,97.1-49.81,142.63-67.92l1.59-.63.06-.03c6.34-2.53,12.7-5.07,18.84-7.5,63.94-25.81,115.56-49.37,152.74-85.34,33.43-32.48,58.82-79.05,59.13-160.92v-88.37h133.81v754.59h-133.81v-383.8c-51.78,39.53-111.6,64.64-163.03,85.31l-.1.04-.09.03c-5.18,1.99-10.29,4.08-15.38,6.16-.65.27-1.31.54-1.96.81l-.1.04c-59.27,23.66-105.49,42.27-140.22,69.54l-4.58,3.59c-14.53,12.16-26.24,25.74-34.61,42.43-9.23,18.41-14.84,41.51-14.84,72.16v14.84h-.06v88.83h-133.69v-754.59h133.69v410.72Z"/>
  <path class="cls-1" d="m1752.98,1971.67h-13.94v-57.85h-21.65v-12.99h57.02v12.99h-21.43v57.85Zm39.97,0h-14.16v-70.84h15.19l21.23,55.12,21.02-55.12h14.98v70.84h-13.94v-41.5l-15.82,41.5h-12.9l-15.61-40.87v40.87Z"/>
</svg>